<?xml version="1.0" standalone="no"?>
<!DOCTYPE svg PUBLIC "-//W3C//DTD SVG 20010904//EN"
 "http://www.w3.org/TR/2001/REC-SVG-20010904/DTD/svg10.dtd">
<svg version="1.0" xmlns="http://www.w3.org/2000/svg"
 width="95.000000pt" height="95.000000pt" viewBox="0 0 95.000000 95.000000"
 preserveAspectRatio="xMidYMid meet">
<metadata>
Created by potrace 1.11, written by Peter Selinger 2001-2013
</metadata>
<g transform="translate(0.000000,95.000000) scale(0.100000,-0.100000)"
fill="#000000" stroke="none">
<path d="M373 925 c-232 -50 -392 -286 -354 -518 16 -99 61 -188 130 -255 103
-103 249 -153 385 -132 209 32 364 187 396 396 21 136 -29 282 -132 385 -64
65 -153 112 -242 128 -74 14 -105 13 -183 -4z m202 -40 c166 -44 285 -173 317
-345 50 -268 -203 -524 -475 -482 -143 22 -266 114 -328 246 -147 314 149 668
486 581z"/>
<path d="M180 712 c-18 -9 -42 -29 -53 -44 -24 -32 -34 -117 -18 -147 11 -19
20 -21 115 -21 116 0 116 0 116 71 0 107 -83 180 -160 141z m52 -41 c-16 -28
-15 -31 2 -50 21 -23 46 -27 64 -9 15 15 25 -9 20 -49 l-3 -28 -89 -3 c-49 -2
-94 2 -99 7 -5 5 -7 29 -2 57 8 59 49 104 94 104 l30 0 -17 -29z"/>
<path d="M575 716 c-67 -29 -105 -106 -91 -181 l7 -35 125 0 c122 0 125 0 135
24 28 62 -18 163 -88 192 -39 17 -50 17 -88 0z m85 -25 c0 -6 -4 -13 -10 -16
-5 -3 -10 -17 -10 -30 0 -32 34 -51 65 -37 20 9 24 8 28 -15 11 -59 5 -63
-114 -63 l-109 0 0 40 c0 48 20 92 52 114 24 17 98 22 98 7z"/>
<path d="M130 415 c0 -8 7 -15 15 -15 9 0 15 -9 15 -24 0 -40 68 -163 112
-200 67 -58 103 -71 193 -71 68 0 88 5 135 28 65 33 113 77 135 123 17 36 20
110 5 148 l-10 26 -300 0 c-260 0 -300 -2 -300 -15z m488 -184 c18 -12 32 -26
32 -31 0 -15 -81 -58 -132 -70 -62 -16 -138 -5 -138 18 0 29 36 78 71 95 46
24 125 18 167 -12z"/>
</g>
</svg>
